<?xml version="1.0" encoding="UTF-8"?><svg id="a" xmlns="http://www.w3.org/2000/svg" xmlns:xlink="http://www.w3.org/1999/xlink" viewBox="0 0 583.12978 224.14818"><defs><style>.e{fill:#fff;}.f{clip-path:url(#c);}.g{clip-path:url(#d);}.h{fill:none;}</style><clipPath id="c"><rect class="h" width="583.12978" height="224.14818"/></clipPath><clipPath id="d"><rect class="h" y=".00021" width="583.12914" height="224.14797"/></clipPath></defs><g id="b"><g class="f"><g class="g"><path class="e" d="M256.37086,183.37033v-8.55528l-2.79867-.1289v-1.62627h2.79867v-4.78099h1.98234v4.78099h5.14297v1.75518h-5.14297v8.55528c0,1.84119,.74866,2.45484,2.0191,2.45484,1.02268-.01094,2.01474-.35104,2.82929-.96972l.87759,1.49146c-1.11482,.87343-2.48701,1.35468-3.90318,1.36869-2.33842-.0186-3.80513-1.38707-3.80513-4.34527"/><path class="e" d="M278.61831,178.65694v8.76406h-1.98236v-8.83168c0-2.4056-.97585-3.96447-3.38165-3.96447-3.06849,0-4.75015,2.596-4.75015,5.71986v7.07629h-1.98234v-23.32151h1.98234v9.29784c0,.71804,0,1.39933-.03064,2.24627,.94587-1.85672,2.88948-2.98927,4.97119-2.89692,3.51648,.0186,5.17361,2.23402,5.17361,5.91026"/><path class="e" d="M295.55088,179.66335c-.00043,.46834-.03326,.9358-.09826,1.39933h-11.501c.20506,2.7969,2.56625,4.94229,5.36992,4.87926,1.65035,.09214,3.25694-.55041,4.38816-1.75539l1.14151,1.42996c-1.46869,1.4466-3.46286,2.23315-5.52353,2.17887-4.35731,0-7.41378-3.12386-7.41378-7.57965,0-4.16099,2.98886-7.5118,7.24809-7.5118,4.02596-.01226,6.38888,2.76167,6.38888,6.95943m-11.54409-.35585h9.59239c-.06128-3.06871-1.84118-4.75013-4.45557-4.75013s-4.73786,1.88408-5.12459,4.75013h-.01224Z"/><path class="e" d="M319.43688,164.09949v23.32151h-1.528l-.28844-2.56536c-1.2586,1.87795-3.39917,2.97154-5.6586,2.89057-4.29602,0-7.22357-3.18536-7.22357-7.5733,0-4.26538,2.99497-7.41988,7.22357-7.41988,2.19069-.05734,4.26955,.966,5.56034,2.73716-.03679-1.22753-.06743-2.54085-.06743-3.90341v-7.48729h1.98212Zm-1.9147,16.12857c0-3.25276-2.17867-5.6216-5.43144-5.6216s-5.37013,2.33819-5.37013,5.6216,2.17867,5.62794,5.37013,5.62794c3.31406,.01838,5.43144-2.35679,5.43144-5.60956v-.01839Z"/><path class="e" d="M323.50601,167.85541c0-.82703,.67033-1.49737,1.49738-1.49737s1.49759,.67033,1.49759,1.49737-.67055,1.49759-1.49759,1.49759-1.49738-.67055-1.49738-1.49759m.49089,5.20447h1.98234v14.36115h-1.98234v-14.36115Z"/><path class="e" d="M341.23026,177.87136v9.54951h-1.46062l-.35606-2.596c-1.15839,1.86701-3.23637,2.96104-5.43141,2.85993-2.79843,0-4.59061-1.52823-4.59061-4.00145,0-3.22212,2.96433-5.07557,7.19274-5.07557,.87954-.01116,1.75889,.03195,2.63298,.1289v-.96972c0-2.01911-1.42998-3.0256-3.64562-3.0256-1.6523,.05515-3.27225,.47425-4.74401,1.22753l-.68741-1.6939c1.75256-.8638,3.6745-1.32907,5.62796-1.36256,3.28339-.01226,5.46206,1.71228,5.46206,4.95892m-2.01298,2.54084c-.7776-.09651-1.56085-.13962-2.34454-.1289-3.38146,0-5.39444,1.16603-5.39444,3.2834,0,1.42997,1.03713,2.27692,2.82907,2.27692,2.97681,0,4.81777-2.14801,4.90991-5.43142Z"/><path class="e" d="M359.25542,173.0599v15.34291c0,4.42492-3.28975,6.53617-7.09467,6.53617-2.42968,.0801-4.78429-.84848-6.50555-2.56536l1.22753-1.39933c1.35664,1.38772,3.22715,2.15195,5.1675,2.11124,2.92754,0,5.20423-1.52823,5.20423-4.71337,0-1.10475,0-2.17865,.037-3.25277-1.34046,1.6742-3.37927,2.63473-5.52355,2.60234-4.42492,0-7.22357-3.35103-7.22357-7.45074s2.73103-7.48116,7.12531-7.48116c2.2095-.0906,4.32338,.90669,5.65857,2.66953l.45413-2.37496,1.47307-.02451Zm-1.92105,7.18659c0-3.0256-1.79197-5.6216-5.43144-5.6216-3.38165,0-5.33337,2.45484-5.33337,5.59096s2.04998,5.62773,5.30275,5.62773c3.60859,0,5.46206-2.57149,5.46206-5.59709"/><path class="e" d="M372.22943,173.25619l-.61367,1.75518c-.61276-.23701-1.26408-.3576-1.92105-.35585-2.33821,0-3.93382,1.65691-3.93382,4.45556v8.30973h-1.98236v-14.36093h1.49126l.39282,2.11737c.80471-1.55821,2.44654-2.50167,4.19798-2.41194,.81588-.01029,1.6243,.15713,2.36885,.49088"/><path class="e" d="M384.88436,177.87136v9.54951h-1.46674l-.35606-2.596c-1.15663,1.86898-3.23592,2.96366-5.43141,2.85993-2.79843,0-4.58447-1.52823-4.58447-4.00145,0-3.22212,2.95819-5.07557,7.18681-5.07557,.87933-.01138,1.75868,.03173,2.63277,.1289v-.96972c0-2.01911-1.42998-3.0256-3.63947-3.0256-1.6543,.05537-3.27599,.47447-4.75015,1.22753l-.68129-1.6939c1.75256-.8638,3.6745-1.32907,5.62796-1.36256,3.27727-.01226,5.46206,1.71228,5.46206,4.95892m-2.0191,2.54084c-.77562-.09629-1.5569-.13941-2.33821-.1289-3.38167,0-5.40077,1.16603-5.40077,3.2834,0,1.42997,1.04325,2.27692,2.82929,2.27692,2.95797,0,4.81141-2.14801,4.9097-5.43142Z"/><path class="e" d="M410.38459,178.42986v8.99101h-1.98236v-9.08927c0-2.31368-1.17215-3.68237-3.19125-3.68237-2.89693,0-4.38816,2.63298-4.38816,5.33337v7.43827h-1.98234v-9.12604c0-1.98234-1.01263-3.68237-3.19149-3.68237-2.92733,0-4.42492,2.63298-4.42492,5.33337v7.47504h-1.98234v-14.36115h1.49757l.45413,2.45506c.8999-1.74555,2.71986-2.82119,4.68272-2.76801,2.17864,0,3.77449,1.07411,4.45557,2.89669,.96206-1.85913,2.91683-2.98971,5.00795-2.89669,3.28975,.01838,5.04493,2.19725,5.04493,5.68309"/><path class="e" d="M435.88476,178.42986v8.99101h-1.98236v-9.08927c0-2.31368-1.17215-3.68237-3.19125-3.68237-2.89078,0-4.38816,2.63298-4.38816,5.33337v7.43827h-1.98234v-9.12604c0-1.98234-1.01263-3.68237-3.19149-3.68237-2.92733,0-4.41881,2.63298-4.41881,5.33337v7.47504h-1.98846v-14.36115h1.49757l.45413,2.45506c.8999-1.74555,2.71986-2.82119,4.68272-2.76801,2.18478,0,3.77449,1.07411,4.45557,2.89669,.96316-1.8611,2.92076-2.99211,5.01428-2.89669,3.28342,.01838,5.0386,2.19725,5.0386,5.68309"/><path class="e" d="M439.77587,167.85533c0-.82704,.67033-1.49737,1.49738-1.49737s1.49757,.67033,1.49757,1.49737-.67055,1.49759-1.49757,1.49759-1.49738-.67056-1.49738-1.49759m.49089,5.20446h1.96396v14.36115h-1.98236l.01841-14.36115Z"/><path class="e" d="M458.88099,178.65694v8.76406h-1.98236v-8.80083c0-2.45484-.90821-3.99532-3.32015-3.99532-2.89084,0-4.81165,2.08039-4.81165,5.06922v7.72693h-1.98234v-14.36115h1.49757l.4541,2.45484c1.04328-1.77487,2.98183-2.82798,5.03862-2.73716,3.35103-.01226,5.10621,2.13576,5.10621,5.8794"/><path class="e" d="M476.89998,173.0599v15.34291c0,4.42492-3.28344,6.53617-7.08858,6.53617-2.43011,.08229-4.78558-.84651-6.50555-2.56536l1.22756-1.39933c1.35862,1.3886,3.23129,2.15304,5.17359,2.11124,2.92754,0,5.20447-1.52823,5.20447-4.71337v-3.25277c-1.33869,1.67639-3.37881,2.63758-5.52355,2.60234-4.41878,0-7.21745-3.35103-7.21745-7.45074s2.73103-7.48116,7.11919-7.48116c2.21169-.09279,4.32843,.90473,5.66472,2.66953l.4541-2.37496,1.4915-.02451Zm-1.91494,7.18659c0-3.0256-1.79199-5.6216-5.43144-5.6216-3.38165,0-5.3334,2.45484-5.3334,5.59096s2.04386,5.62773,5.29664,5.62773c3.60862,0,5.4682-2.57149,5.4682-5.59709"/><path class="e" d="M500.93932,179.66335c-.00043,.46834-.03302,.9358-.09826,1.39933h-11.51345c.20528,2.79449,2.56272,4.93901,5.36401,4.87926,1.65211,.09323,3.26105-.54931,4.39425-1.75539l1.13539,1.42996c-1.46714,1.44901-3.46238,2.23599-5.52355,2.17887-4.35728,0-7.41984-3.12386-7.41984-7.57965,0-4.16099,2.99492-7.5118,7.25421-7.5118,4.03211-.01226,6.40724,2.76167,6.40724,6.95943m-11.54406-.35585h9.59237c-.06738-3.06871-1.84115-4.75013-4.45554-4.75013s-4.75015,1.88408-5.13683,4.75013"/><path class="e" d="M502.2405,187.3718l5.33313-7.51202-4.81144-6.75086v-.06763h2.27693l2.53451,3.60884c.4182,.56179,.79948,1.15027,1.14153,1.7613,.38667-.65042,.81016-1.27043,1.17236-1.79194l2.56534-3.5782h2.19705v.06763l-4.81774,6.75086,5.33334,7.51202v.06128h-2.27693l-2.95816-4.19163c-.44887-.6141-.85878-1.25554-1.22756-1.92085-.4541,.74869-.81609,1.3317-1.27041,1.95149l-2.97638,4.14874h-2.21559v-.04903Z"/><path class="e" d="M532.68729,180.18504c0,4.4188-2.99497,7.5733-7.12534,7.5733-2.18652,.04443-4.26319-.95637-5.59093-2.69404,.03062,1.10453,.06128,2.45484,.06128,3.86642v5.65836h-1.98236v-21.52935h1.50983l.42349,2.40582c1.32624-1.75693,3.42108-2.7632,5.6216-2.70039,4.08746,0,7.08243,3.12386,7.08243,7.41989m-1.98846,.09826c0-3.32017-2.17867-5.65858-5.26575-5.65858-2.91883-.13262-5.39249,2.12569-5.52532,5.04449-.00764,.1718-.00721,.34403,.00176,.51583,0,3.41231,2.31369,5.71986,5.52355,5.71986,3.08687,0,5.26575-2.33819,5.26575-5.6216"/><path class="e" d="M548.81582,179.66335c-.00128,.4679-.03195,.93536-.09211,1.39933h-11.51323c.20197,2.79603,2.56139,4.94207,5.36374,4.87926,1.65062,.09389,3.25785-.54887,4.38816-1.75539l1.14153,1.42996c-1.46869,1.4466-3.46265,2.23315-5.52355,2.17887-4.35728,0-7.41375-3.12386-7.41375-7.57965,0-4.16099,2.99497-7.5118,7.25421-7.5118,4.02617-.01226,6.395,2.76167,6.395,6.95943m-11.54406-.35585h9.59872c-.06764-3.06871-1.8412-4.75013-4.4619-4.75013-2.62053,0-4.74401,1.88408-5.13683,4.75013"/><path class="e" d="M560.56254,173.25619l-.6137,1.75518c-.6106-.23658-1.2601-.35716-1.91494-.35585-2.3443,0-3.93379,1.65691-3.93379,4.45556v8.30973h-1.98851v-14.36093h1.49738l.39287,2.11737c.8014-1.55843,2.4417-2.50233,4.19181-2.41194,.81588-.01006,1.62412,.15736,2.36888,.49088"/><path class="e" d="M564.01167,183.37033v-8.55528l-2.79867-.1289v-1.62627h2.79867v-4.78099h1.98231v4.78099h5.11845v1.75518h-5.13683v8.55528c0,1.84119,.74866,2.45484,2.01912,2.45484,1.02244-.01226,2.01405-.35213,2.82929-.96972l.87759,1.49146c-1.11503,.87343-2.48701,1.35468-3.90345,1.36869-2.32592-.0186-3.78649-1.38707-3.78649-4.34527"/><path class="e" d="M573.02112,186.1014l1.00646-1.55886c1.23018,.88284,2.71505,1.3398,4.22862,1.30106,1.75518,0,2.89671-.87759,2.89671-2.17865,0-1.39933-1.59564-2.11737-3.3202-2.79865-2.33821-.90823-4.296-2.01911-4.296-4.32666,0-2.40582,2.20928-3.63947,4.64575-3.63947,1.54835-.00131,3.06342,.45105,4.35749,1.30106l-.87759,1.42996c-1.02949-.59111-2.19443-.90604-3.38165-.91435-1.46062,0-2.7617,.4911-2.7617,1.84118,0,1.3503,1.33169,1.9517,3.02559,2.60212,2.60215,.97585,4.58447,2.11737,4.58447,4.52319s-2.04974,4.03209-4.90986,4.03209c-1.85803,.01401-3.67471-.54997-5.19811-1.61402"/><path class="e" d="M380.63138,111.933c0-17.55241,12.64251-29.9496,30.44048-29.9496s30.54507,12.35408,30.54507,29.9496-12.704,30.0111-30.56345,30.0111-30.44048-12.45869-30.44048-30.0111m46.88836,0c0-10.43322-6.62809-17.67518-16.38638-17.67518s-16.38638,7.24196-16.38638,17.67518,6.75084,17.73669,16.38638,17.73669c9.75829-.0615,16.38638-7.36474,16.38638-17.73669"/><path class="e" d="M488.95339,84.70213l-3.55962,11.72204c-2.35525-.87715-4.85167-1.31397-7.36476-1.2888-7.97835,0-13.5019,5.21672-13.5019,14.23837v30.93157h-13.87004v-56.8307h9.37154l2.70041,8.40799c3.31406-6.38254,9.02163-9.69681,16.38638-9.69681,3.43684-.03326,6.82223,.83426,9.81955,2.51633"/><polygon class="e" points="312.38533 83.53604 312.38533 83.90438 282.55828 159.26947 267.82903 159.26947 267.82903 159.02391 276.7894 138.95517 252.42462 83.90438 252.42462 83.53604 267.46071 83.53604 283.29492 121.58681 297.84012 83.47477 312.38533 83.53604"/><path class="e" d="M365.96331,83.53604l-8.77633,25.22398c-.85133,2.28852-1.5685,4.62451-2.14803,6.99641-.94192-2.46535-2.04907-4.86416-3.31403-7.18046l-11.10839-22.27826h-2.94592l-11.04689,22.33954c-1.16603,2.33228-2.148,4.48028-3.12999,6.9964-.61365-2.39334-1.28879-4.60284-2.02522-6.87363l-6.6283-18.92109-7.5488,19.20954,11.90629,31.79078h4.23477l15.95678-31.72929,15.7725,31.72929h4.29624l21.23479-56.89198v-.36832h-14.72946v-.0429Z"/><path class="e" d="M565.91427,106.55065c-6.07597-2.148-10.31068-4.29601-10.31068-8.03966,0-3.5596,3.68235-4.84862,8.03985-4.84862,4.41162,.12803,8.73561,1.26167,12.64275,3.31427l4.84841-9.3287c-5.61198-3.37641-12.04679-5.13903-18.59588-5.09395-10.86283,0-20.06873,5.46227-20.06873,15.957,0,9.32847,6.99641,13.99282,16.01825,17.49091,5.58484,2.14801,10.92411,4.23475,10.92411,8.40799,0,3.5596-3.31406,5.83038-8.40798,5.83038-5.51917-.07025-10.90445-1.70922-15.52717-4.72562l-.92049-.61366v12.94957c5.4651,2.58155,11.44714,3.88305,17.4911,3.80514,12.45847,0,20.98928-6.62831,20.98928-17.18431-.06128-9.51275-7.18048-14.23836-17.12281-17.92074"/><polygon class="e" points="538.0512 132.5725 519.51676 111.0309 538.0512 88.93692 538.0512 83.53613 526.39039 83.53613 507.54922 106.05973 507.54922 63.89699 493.62377 63.89699 493.62377 140.30535 507.54922 140.30535 507.54922 116.06335 527.92474 140.30535 538.0512 140.30535 538.0512 132.5725"/><path class="e" d="M211.73479,88.44582c-.12277-23.49791-12.75063-45.15201-33.14108-56.8307l-40.19879-22.9532c-20.41058-11.65769-45.49012-11.54082-65.79106,.30684l-40.01471,23.32151C12.32758,44.17491-.08515,65.938,.00042,89.4278l.24554,46.27471c.12278,23.49791,12.75041,45.15201,33.1409,56.8307l40.19896,22.95319c20.41061,11.65769,45.49015,11.54083,65.79109-.30682l39.95323-23.32152c20.31605-11.83868,32.76467-33.62408,32.65021-57.13752l-.24555-46.27471Zm-50.75492,6.87379c-2.35767,.9566-4.88166,1.43631-7.42601,1.41158h-6.75086c-3.75568-.02363-7.48904,.57777-11.04711,1.77969-2.49118,.95397-4.89393,2.1246-7.18048,3.49831-2.27078,1.2888-4.54156,2.57762-6.68956,3.98919-7.31397,4.45032-12.093,12.0967-12.88831,20.62091-.3068,3.37554-.24551,6.75107-.24551,10.1879,0,3.62087,.24551,7.18046,1.35029,10.6175,.84585,2.63189,1.97774,5.16331,3.37556,7.54878,1.77965,3.25255,3.92768,6.32125,5.09371,9.88085,1.16627,3.74365,1.16627,7.42601-.49086,10.98561-2.08677,4.29602-5.46206,6.87363-10.24918,7.42601-4.05529,.583-8.13859-.86206-10.92433-3.86643-3.06849-3.12999-4.23455-7.11918-3.62088-11.53797,.55239-4.17325,2.63889-7.67157,4.72563-11.16966,2.20952-3.62109,4.17324-7.30346,4.97117-11.53798,.27837-1.4803,.46287-2.97679,.55239-4.48029,.24554-3.25276,.24554-6.44404,.18404-9.6968-.12278-4.17325-.36808-8.34672-2.148-12.21314-1.28029-3.03501-3.08799-5.81921-5.33927-8.22371-2.55444-2.50649-5.4218-4.67244-8.53076-6.44425-2.51635-1.47286-5.03269-3.00722-7.67158-4.29602-3.57274-1.7462-7.44856-2.78814-11.41522-3.06849-2.33228,.06127-4.4374,.18405-6.1987,.06127-3.19128,0-6.07591,.18405-8.89908-.61365-5.58484-1.47308-9.38976-4.8484-10.74007-10.6175-1.59564-6.50553,2.63913-13.44044,9.08315-15.22035,4.78689-1.2888,9.02165-.06128,12.82679,2.94594,2.63913,2.08673,4.29602,4.8484,5.89166,7.67157,1.40567,2.69054,3.00547,5.27516,4.78713,7.73284,2.27145,2.91705,5.05893,5.39246,8.22394,7.30323,3.14816,2.03859,6.40574,3.90319,9.75808,5.58505,4.84838,2.39335,9.94236,3.68215,15.52717,3.06849,5.15523-.55237,9.6968-2.63889,14.05432-5.2165,1.90246-1.16625,3.86642-2.20951,5.83038-3.43704,4.39035-2.7308,8.03771-6.50465,10.61729-10.9856,1.65711-2.82317,3.12999-5.76889,5.09395-8.46928,2.17362-3.2324,5.48044-5.53186,9.26719-6.44404,5.83038-1.3503,12.64273,1.65692,15.09758,7.79412,2.76188,6.99641-.73643,14.6067-7.85562,17.42986Z"/></g></g></g></svg>