<svg id="Layer_1" data-name="Layer 1" xmlns="http://www.w3.org/2000/svg" viewBox="0 0 984 391.38"><defs><style>.cls-1{fill:#222160;}.cls-2{fill:#242265;}.cls-3{fill:#ff6c00;}</style></defs><title>yWorks - Orange-tde-H</title><path class="cls-1" d="M435.16,310.4V296.46l-4.56-.21V293.6h4.56v-7.79h3.23v7.79h8.38v2.86h-8.38V310.4c0,3,1.22,4,3.29,4a7.76,7.76,0,0,0,4.61-1.58l1.43,2.43a10.48,10.48,0,0,1-6.36,2.23C437.55,317.45,435.16,315.22,435.16,310.4Z"/><path class="cls-1" d="M471.41,302.72V317h-3.23V302.61c0-3.92-1.59-6.46-5.51-6.46-5,0-7.74,4.23-7.74,9.32V317H451.7V279h3.23v15.15c0,1.17,0,2.28-.05,3.66a8.66,8.66,0,0,1,8.1-4.72C468.71,293.12,471.41,296.73,471.41,302.72Z"/><path class="cls-1" d="M499,304.36a16.51,16.51,0,0,1-.16,2.28H480.1a8.58,8.58,0,0,0,8.75,7.95,9.11,9.11,0,0,0,7.15-2.86l1.86,2.33a12.36,12.36,0,0,1-9,3.55c-7.1,0-12.08-5.09-12.08-12.35,0-6.78,4.87-12.24,11.81-12.24C495.15,293,499,297.52,499,304.36Zm-18.81-.58h15.63c-.1-5-3-7.74-7.26-7.74S480.84,299.11,480.21,303.78Z"/><path class="cls-1" d="M537.92,279v38h-2.49l-.47-4.18a10.64,10.64,0,0,1-9.22,4.71c-7,0-11.77-5.19-11.77-12.34,0-6.95,4.88-12.09,11.77-12.09a10.86,10.86,0,0,1,9.06,4.46c-.06-2-.11-4.14-.11-6.36V279Zm-3.12,26.28c0-5.3-3.55-9.16-8.85-9.16s-8.75,3.81-8.75,9.16,3.55,9.17,8.75,9.17C531.35,314.48,534.8,310.61,534.8,305.31Z"/><path class="cls-1" d="M544.55,285.12a2.44,2.44,0,1,1,4.88,0,2.44,2.44,0,0,1-4.88,0Zm.8,8.48h3.23V317h-3.23Z"/><path class="cls-1" d="M573.43,301.44V317h-2.38l-.58-4.23a9.88,9.88,0,0,1-8.85,4.66c-4.56,0-7.48-2.49-7.48-6.52,0-5.25,4.83-8.27,11.72-8.27a34.84,34.84,0,0,1,4.29.21v-1.58c0-3.29-2.33-4.93-5.94-4.93a18.31,18.31,0,0,0-7.73,2l-1.12-2.76a21.58,21.58,0,0,1,9.17-2.22C569.88,293.34,573.43,296.15,573.43,301.44Zm-3.28,4.14a27.91,27.91,0,0,0-3.82-.21c-5.51,0-8.79,1.9-8.79,5.35,0,2.33,1.69,3.71,4.61,3.71C567,314.43,570,310.93,570.15,305.58Z"/><path class="cls-1" d="M602.8,293.6v25c0,7.21-5.36,10.65-11.56,10.65a14.34,14.34,0,0,1-10.6-4.18l2-2.28a11.44,11.44,0,0,0,8.42,3.44c4.77,0,8.48-2.49,8.48-7.68,0-1.8,0-3.55.06-5.3a11.31,11.31,0,0,1-9,4.24c-7.21,0-11.77-5.46-11.77-12.14s4.45-12.19,11.61-12.19a11,11,0,0,1,9.22,4.35l.74-3.87Zm-3.13,11.71c0-4.93-2.92-9.16-8.85-9.16-5.51,0-8.69,4-8.69,9.11s3.34,9.17,8.64,9.17C596.65,314.43,599.67,310.24,599.67,305.31Z"/><path class="cls-1" d="M623.94,293.92l-1,2.86a8.61,8.61,0,0,0-3.13-.58c-3.81,0-6.41,2.7-6.41,7.26V317h-3.23V293.6h2.43l.64,3.45a7.28,7.28,0,0,1,6.84-3.93A9.16,9.16,0,0,1,623.94,293.92Z"/><path class="cls-1" d="M644.56,301.44V317h-2.39l-.58-4.23a9.86,9.86,0,0,1-8.85,4.66c-4.56,0-7.47-2.49-7.47-6.52,0-5.25,4.82-8.27,11.71-8.27a34.74,34.74,0,0,1,4.29.21v-1.58c0-3.29-2.33-4.93-5.93-4.93a18.36,18.36,0,0,0-7.74,2l-1.11-2.76a21.58,21.58,0,0,1,9.17-2.22C641,293.34,644.56,296.15,644.56,301.44Zm-3.29,4.14a27.85,27.85,0,0,0-3.81-.21c-5.51,0-8.8,1.9-8.8,5.35,0,2.33,1.7,3.71,4.61,3.71C638.09,314.43,641.11,310.93,641.27,305.58Z"/><path class="cls-1" d="M686.11,302.35V317h-3.23V302.19c0-3.77-1.91-6-5.2-6-4.72,0-7.15,4.29-7.15,8.69V317H667.3V302.13c0-3.23-1.65-6-5.2-6-4.77,0-7.21,4.29-7.21,8.69V317h-3.23V293.6h2.44l.74,4a8.33,8.33,0,0,1,7.63-4.51c3.55,0,6.15,1.75,7.26,4.72a8.75,8.75,0,0,1,8.16-4.72C683.25,293.12,686.11,296.67,686.11,302.35Z"/><path class="cls-1" d="M727.66,302.35V317h-3.23V302.19c0-3.77-1.91-6-5.2-6-4.71,0-7.15,4.29-7.15,8.69V317h-3.23V302.13c0-3.23-1.65-6-5.2-6-4.77,0-7.2,4.29-7.2,8.69V317h-3.24V293.6h2.44l.74,4a8.33,8.33,0,0,1,7.63-4.51c3.56,0,6.15,1.75,7.26,4.72a8.75,8.75,0,0,1,8.17-4.72C724.8,293.12,727.66,296.67,727.66,302.35Z"/><path class="cls-1" d="M734,285.12a2.44,2.44,0,0,1,4.88,0,2.44,2.44,0,0,1-4.88,0Zm.8,8.48H738V317h-3.23Z"/><path class="cls-1" d="M765.13,302.72V317H761.9V302.66c0-4-1.48-6.51-5.41-6.51-4.71,0-7.84,3.39-7.84,8.26V317h-3.23V293.6h2.44l.74,4a9.06,9.06,0,0,1,8.21-4.46C762.27,293.12,765.13,296.62,765.13,302.72Z"/><path class="cls-1" d="M794.49,293.6v25c0,7.21-5.35,10.65-11.55,10.65a14.31,14.31,0,0,1-10.6-4.18l2-2.28a11.45,11.45,0,0,0,8.43,3.44c4.77,0,8.48-2.49,8.48-7.68,0-1.8,0-3.55,0-5.3a11.28,11.28,0,0,1-9,4.24c-7.2,0-11.76-5.46-11.76-12.14s4.45-12.19,11.6-12.19a11,11,0,0,1,9.23,4.35l.74-3.87Zm-3.12,11.71c0-4.93-2.92-9.16-8.85-9.16-5.51,0-8.69,4-8.69,9.11s3.33,9.17,8.63,9.17C788.34,314.43,791.37,310.24,791.37,305.31Z"/><path class="cls-1" d="M833.66,304.36a16.51,16.51,0,0,1-.16,2.28H814.74a8.58,8.58,0,0,0,8.74,7.95,9.12,9.12,0,0,0,7.16-2.86l1.85,2.33a12.32,12.32,0,0,1-9,3.55c-7.1,0-12.09-5.09-12.09-12.35,0-6.78,4.88-12.24,11.82-12.24C829.79,293,833.66,297.52,833.66,304.36Zm-18.81-.58h15.63c-.11-5-3-7.74-7.26-7.74S815.48,299.11,814.85,303.78Z"/><path class="cls-1" d="M835.78,316.92l8.69-12.24-7.84-11v-.11h3.71l4.13,5.88a26.51,26.51,0,0,1,1.86,2.87c.63-1.06,1.32-2.07,1.91-2.92l4.18-5.83H856v.11l-7.85,11,8.69,12.24v.1h-3.71l-4.82-6.83a29.65,29.65,0,0,1-2-3.13c-.74,1.22-1.33,2.17-2.07,3.18L839.39,317h-3.61Z"/><path class="cls-1" d="M885.39,305.21c0,7.2-4.88,12.34-11.61,12.34a11.18,11.18,0,0,1-9.11-4.39c.05,1.8.1,4,.1,6.3v9.22h-3.23V293.6H864l.69,3.92a11.08,11.08,0,0,1,9.16-4.4C880.51,293.12,885.39,298.21,885.39,305.21Zm-3.24.16c0-5.41-3.55-9.22-8.58-9.22a8.62,8.62,0,0,0-9,9.06c0,5.56,3.77,9.32,9,9.32C878.6,314.53,882.15,310.72,882.15,305.37Z"/><path class="cls-1" d="M911.67,304.36a18.17,18.17,0,0,1-.15,2.28H892.76a8.57,8.57,0,0,0,8.74,7.95,9.09,9.09,0,0,0,7.15-2.86l1.86,2.33a12.36,12.36,0,0,1-9,3.55c-7.1,0-12.08-5.09-12.08-12.35,0-6.78,4.88-12.24,11.82-12.24C907.81,293,911.67,297.52,911.67,304.36Zm-18.81-.58H908.5c-.11-5-3-7.74-7.27-7.74S893.5,299.11,892.86,303.78Z"/><path class="cls-1" d="M930.81,293.92l-1,2.86a8.59,8.59,0,0,0-3.12-.58c-3.82,0-6.41,2.7-6.41,7.26V317h-3.24V293.6h2.44l.64,3.45a7.26,7.26,0,0,1,6.83-3.93A9.17,9.17,0,0,1,930.81,293.92Z"/><path class="cls-1" d="M936.43,310.4V296.46l-4.56-.21V293.6h4.56v-7.79h3.23v7.79H948v2.86h-8.37V310.4c0,3,1.22,4,3.29,4a7.79,7.79,0,0,0,4.61-1.58l1.43,2.43a10.48,10.48,0,0,1-6.36,2.23C938.81,317.45,936.43,315.22,936.43,310.4Z"/><path class="cls-1" d="M951.11,314.85l1.64-2.54a11.32,11.32,0,0,0,6.89,2.12c2.86,0,4.72-1.43,4.72-3.55,0-2.28-2.6-3.45-5.41-4.56-3.81-1.48-7-3.29-7-7.05,0-3.92,3.6-5.93,7.57-5.93a12.91,12.91,0,0,1,7.1,2.12l-1.43,2.33a11.22,11.22,0,0,0-5.51-1.49c-2.38,0-4.5.8-4.5,3s2.17,3.18,4.93,4.24c4.24,1.59,7.47,3.45,7.47,7.37s-3.34,6.57-8,6.57A14.6,14.6,0,0,1,951.11,314.85Z"/><g id="yWorks"><path class="cls-2" d="M637.63,194c0-28.6,20.6-48.8,49.6-48.8S737,165.33,737,194s-20.7,48.9-49.8,48.9-49.6-20.3-49.6-48.9m76.4,0c0-17-10.8-28.8-26.7-28.8s-26.7,11.8-26.7,28.8,11,28.9,26.7,28.9c15.9-.1,26.7-12,26.7-28.9"/><path class="cls-2" d="M814.13,149.63l-5.8,19.1a33.42,33.42,0,0,0-12-2.1c-13,0-22,8.5-22,23.2v50.4h-22.6v-92.6H767l4.4,13.7c5.4-10.4,14.7-15.8,26.7-15.8a32.06,32.06,0,0,1,16,4.1"/><path class="cls-3" d="M526.43,147.73v.6l-48.6,122.8h-24v-.4l14.6-32.7-39.7-89.7v-.6h24.5l25.8,62,23.7-62.1,23.7.1Z"/><path class="cls-2" d="M613.73,147.73l-14.3,41.1a102.4,102.4,0,0,0-3.5,11.4,95.59,95.59,0,0,0-5.4-11.7l-18.1-36.3h-4.8l-18,36.4c-1.9,3.8-3.5,7.3-5.1,11.4-1-3.9-2.1-7.5-3.3-11.2L530.43,158l-12.3,31.3,19.4,51.8h6.9l26-51.7,25.7,51.7h7l34.6-92.7v-.6h-24Z"/><path class="cls-2" d="M939.53,185.23c-9.9-3.5-16.8-7-16.8-13.1,0-5.8,6-7.9,13.1-7.9a47.24,47.24,0,0,1,20.6,5.4l7.9-15.2a58,58,0,0,0-30.3-8.3c-17.7,0-32.7,8.9-32.7,26,0,15.2,11.4,22.8,26.1,28.5,9.1,3.5,17.8,6.9,17.8,13.7,0,5.8-5.4,9.5-13.7,9.5a47.4,47.4,0,0,1-25.3-7.7l-1.5-1v21.1a64.77,64.77,0,0,0,28.5,6.2c20.3,0,34.2-10.8,34.2-28-.1-15.5-11.7-23.2-27.9-29.2"/><polygon class="cls-2" points="894.13 227.63 863.93 192.53 894.13 156.53 894.13 147.73 875.13 147.73 844.43 184.43 844.43 115.73 821.74 115.73 821.74 240.23 844.43 240.23 844.43 200.73 877.63 240.23 894.13 240.23 894.13 227.63"/></g><path class="cls-2" d="M17.43,157.33l.4,75.4a107.36,107.36,0,0,0,54,92.6l65.5,37.4a107.2,107.2,0,0,0,107.2-.5l65.1-38a107.15,107.15,0,0,0,53.2-93.1l-.4-75.4a107.36,107.36,0,0,0-54-92.6l-65.5-37.4a107.2,107.2,0,0,0-107.2.5l-65.2,38a107.48,107.48,0,0,0-53.1,93.1"/><path class="cls-3" d="M119.13,169.33c-5.2,0-9.9.3-14.5-1-9.1-2.4-15.3-7.9-17.5-17.3-2.6-10.6,4.3-21.9,14.8-24.8,7.8-2.1,14.7-.1,20.9,4.8,4.3,3.4,7,7.9,9.6,12.5a101.7,101.7,0,0,0,7.8,12.6,49.24,49.24,0,0,0,13.4,11.9,167.16,167.16,0,0,0,15.9,9.1c7.9,3.9,16.2,6,25.3,5,8.4-.9,15.8-4.3,22.9-8.5,3.1-1.9,6.3-3.6,9.5-5.6a51.11,51.11,0,0,0,17.3-17.9c2.7-4.6,5.1-9.4,8.3-13.8a25.35,25.35,0,0,1,15.1-10.5c9.5-2.2,20.6,2.7,24.6,12.7,4.5,11.4-1.2,23.8-12.8,28.4a31.37,31.37,0,0,1-12.1,2.3h-11a55.17,55.17,0,0,0-18,2.9,74.36,74.36,0,0,0-11.7,5.7c-3.7,2.1-7.4,4.2-10.9,6.5a44.13,44.13,0,0,0-21,33.6c-.5,5.5-.4,11-.4,16.6,0,5.9.4,11.7,2.2,17.3a61.63,61.63,0,0,0,5.5,12.3c2.9,5.3,6.4,10.3,8.3,16.1,1.9,6.1,1.9,12.1-.8,17.9-3.4,7-8.9,11.2-16.7,12.1a20.33,20.33,0,0,1-17.8-6.3c-5-5.1-6.9-11.6-5.9-18.8.9-6.8,4.3-12.5,7.7-18.2,3.6-5.9,6.8-11.9,8.1-18.8a58.23,58.23,0,0,0,.9-7.3c.4-5.3.4-10.5.3-15.8-.2-6.8-.6-13.6-3.5-19.9a45.45,45.45,0,0,0-8.7-13.4,67.72,67.72,0,0,0-13.9-10.5c-4.1-2.4-8.2-4.9-12.5-7a50.46,50.46,0,0,0-18.6-5C125.43,169.33,122,169.53,119.13,169.33Z"/></svg>